<svg viewBox="0 0 48 50" version="1.1" xmlns:xlink="http://www.w3.org/1999/xlink" xmlns="http://www.w3.org/2000/svg" class="mr-2" style="width: 22px;"><defs><linearGradient x1="0.47599995" y1="-0.17840004" x2="0.55474997" y2="1.1008" id="gradient_1"><stop offset="0" stop-color="#FEDE00"></stop><stop offset="1" stop-color="#FFD000"></stop></linearGradient><linearGradient x1="0.47599995" y1="-0.17840004" x2="0.55474997" y2="1.1007998" id="gradient_2"><stop offset="0" stop-color="#E5A505"></stop><stop offset="0.11599999" stop-color="#EAA804"></stop><stop offset="0.595" stop-color="#F8B301"></stop><stop offset="1" stop-color="#FDB700"></stop></linearGradient><linearGradient x1="0.47599995" y1="-0.17840004" x2="0.55474997" y2="1.1007999" id="gradient_3"><stop offset="0" stop-color="#E5A505"></stop><stop offset="0.11599999" stop-color="#EAA804"></stop><stop offset="0.595" stop-color="#F8B301"></stop><stop offset="1" stop-color="#FDB700"></stop></linearGradient><linearGradient x1="0.47599995" y1="-0.17840004" x2="0.55474997" y2="1.1007999" id="gradient_4"><stop offset="0" stop-color="#FEDE00"></stop><stop offset="1" stop-color="#FFD000"></stop></linearGradient><linearGradient x1="0.47599995" y1="-0.17840004" x2="0.55474997" y2="1.1008" id="gradient_5"><stop offset="0" stop-color="#E5A505"></stop><stop offset="0.11599999" stop-color="#EAA804"></stop><stop offset="0.595" stop-color="#F8B301"></stop><stop offset="1" stop-color="#FDB700"></stop></linearGradient><linearGradient x1="0.22745836" y1="-0.045083314" x2="0.77849996" y2="1.057" id="gradient_6"><stop offset="0" stop-color="#FEDE00"></stop><stop offset="1" stop-color="#FFD000"></stop></linearGradient><linearGradient x1="0.476" y1="-0.17840004" x2="0.55474997" y2="1.1008" id="gradient_7"><stop offset="0" stop-color="#E5A505"></stop><stop offset="0.11599999" stop-color="#EAA804"></stop><stop offset="0.595" stop-color="#F8B301"></stop><stop offset="1" stop-color="#FDB700"></stop></linearGradient><linearGradient x1="0.476" y1="-0.17840004" x2="0.55474997" y2="1.1008" id="gradient_8"><stop offset="0" stop-color="#FEDE00"></stop><stop offset="1" stop-color="#FFD000"></stop></linearGradient><linearGradient x1="0.476" y1="-0.17840004" x2="0.55474997" y2="1.1007998" id="gradient_9"><stop offset="0" stop-color="#E5A505"></stop><stop offset="0.11599999" stop-color="#EAA804"></stop><stop offset="0.595" stop-color="#F8B301"></stop><stop offset="1" stop-color="#FDB700"></stop></linearGradient><linearGradient x1="0.22745831" y1="-0.045083404" x2="0.7785" y2="1.0569999" id="gradient_10"><stop offset="0" stop-color="#FEDE00"></stop><stop offset="1" stop-color="#FFD000"></stop></linearGradient><path d="M0 0L48 0L48 48L0 48L0 0Z" id="path_1"></path><path d="M0 0L26 0L26 26L0 26L0 0Z" id="path_2"></path><clipPath id="mask_1"><use xlink:href="#path_1"></use></clipPath><clipPath id="mask_2"><use xlink:href="#path_2"></use></clipPath></defs><g id="stack_of_money"><path d="M0 0L48 0L48 48L0 48L0 0Z" id="Background" fill="none" fill-rule="evenodd" stroke="none"></path><g clip-path="url(#mask_1)"><path d="M43 22L1 22C0.448 22 0 21.552 0 21L0 1C0 0.448 0.448 0 1 0L43 0C43.552 0 44 0.448 44 1L44 21C44 21.552 43.552 22 43 22L43 22Z" transform="translate(2 9)" id="Shape" fill="#52BF8D" fill-rule="evenodd" stroke="none"></path><path d="M0 0L0 22L34 22L34 0L0 0L0 0ZM15 19C10.582 19 7 15.418 7 11C7 6.582 10.582 3 15 3C19.418 3 23 6.582 23 11C23 15.418 19.418 19 15 19L15 19ZM31.5 19C30.672 19 30 18.328 30 17.5C30 16.672 30.672 16 31.5 16C32.328 16 33 16.672 33 17.5C33 18.328 32.328 19 31.5 19L31.5 19ZM27.5 19C26.672 19 26 18.328 26 17.5C26 16.672 26.672 16 27.5 16C28.328 16 29 16.672 29 17.5C29 18.328 28.328 19 27.5 19L27.5 19Z" transform="translate(7 9)" id="Shape" fill="#107C42" fill-rule="evenodd" stroke="none"></path><path d="M45 22L1 22C0.448 22 0 21.552 0 21L0 1C0 0.448 0.448 0 1 0L45 0C45.552 0 46 0.448 46 1L46 21C46 21.552 45.552 22 45 22L45 22Z" transform="translate(1 12)" id="Shape" fill="#59D19A" fill-rule="evenodd" stroke="none"></path><path d="M0 0L0 22L36 22L36 0L0 0L0 0ZM16 19C11.582 19 8 15.418 8 11C8 6.582 11.582 3 16 3C20.418 3 24 6.582 24 11C24 15.418 20.418 19 16 19L16 19ZM33.5 19C32.672 19 32 18.328 32 17.5C32 16.672 32.672 16 33.5 16C34.328 16 35 16.672 35 17.5C35 18.328 34.328 19 33.5 19L33.5 19ZM29.5 19C28.672 19 28 18.328 28 17.5C28 16.672 28.672 16 29.5 16C30.328 16 31 16.672 31 17.5C31 18.328 30.328 19 29.5 19L29.5 19Z" transform="translate(6 12)" id="Shape" fill="#21A366" fill-rule="evenodd" stroke="none"></path><path d="M47 24L1 24C0.448 24 0 23.552 0 23L0 1C0 0.448 0.448 0 1 0L47 0C47.552 0 48 0.448 48 1L48 23C48 23.552 47.552 24 47 24L47 24Z" transform="translate(0 15)" id="Shape" fill="#61E3A7" fill-rule="evenodd" stroke="none"></path><path d="M0 0L0 24L38 24L38 0L0 0L0 0ZM15 20C10.582 20 7 16.418 7 12C7 7.582 10.582 4 15 4C19.418 4 23 7.582 23 12C23 16.418 19.418 20 15 20L15 20ZM35.5 21C34.672 21 34 20.328 34 19.5C34 18.672 34.672 18 35.5 18C36.328 18 37 18.672 37 19.5C37 20.328 36.328 21 35.5 21L35.5 21ZM31.5 21C30.672 21 30 20.328 30 19.5C30 18.672 30.672 18 31.5 18C32.328 18 33 18.672 33 19.5C33 20.328 32.328 21 31.5 21L31.5 21Z" transform="translate(5 15)" id="Shape" fill="#33C481" fill-rule="evenodd" stroke="none"></path></g></g><g id="stack_of_coins" transform="translate(22 24)"><path d="M0 0L26 0L26 26L0 26L0 0Z" id="Background" fill="none" fill-rule="evenodd" stroke="none"></path><g clip-path="url(#mask_2)"><path d="M13 0L0 0C0 0.38025 0 1.78642 0 2.16667C0 3.96175 2.91038 5.41667 6.5 5.41667C10.0896 5.41667 13 3.96175 13 2.16667C13 1.78642 13 0.38025 13 0L13 0Z" transform="translate(10.833334 16.25)" id="Shape" fill="url(#gradient_1)" fill-rule="evenodd" stroke="none"></path><path d="M13 0L0 0C0 0.38025 0 1.78642 0 2.16667C0 3.96175 2.91038 5.41667 6.5 5.41667C10.0896 5.41667 13 3.96175 13 2.16667C13 1.78642 13 0.38025 13 0L13 0Z" transform="translate(10.833334 14.083334)" id="Shape" fill="url(#gradient_2)" fill-rule="evenodd" stroke="none"></path><path d="M13 0L0 0C0 0.38025 0 1.78642 0 2.16667C0 3.96175 2.91038 5.41667 6.5 5.41667C10.0896 5.41667 13 3.96175 13 2.16667C13 1.78642 13 0.38025 13 0L13 0Z" transform="translate(10.833334 11.916667)" id="Shape" fill="url(#gradient_1)" fill-rule="evenodd" stroke="none"></path><path d="M13 0L0 0C0 0.38025 0 1.78642 0 2.16667C0 3.96175 2.91038 5.41667 6.5 5.41667C10.0896 5.41667 13 3.96175 13 2.16667C13 1.78642 13 0.38025 13 0L13 0Z" transform="translate(10.833334 9.75)" id="Shape" fill="url(#gradient_3)" fill-rule="evenodd" stroke="none"></path><path d="M13 0L0 0C0 0.38025 0 1.78642 0 2.16667C0 3.96175 2.91038 5.41667 6.5 5.41667C10.0896 5.41667 13 3.96175 13 2.16667C13 1.78642 13 0.38025 13 0L13 0Z" transform="translate(10.833334 7.5833335)" id="Shape" fill="url(#gradient_4)" fill-rule="evenodd" stroke="none"></path><path d="M13 0L0 0C0 0.38025 0 1.78642 0 2.16667C0 3.96175 2.91038 5.41667 6.5 5.41667C10.0896 5.41667 13 3.96175 13 2.16667C13 1.78642 13 0.38025 13 0L13 0Z" transform="translate(10.833334 5.416667)" id="Shape" fill="url(#gradient_5)" fill-rule="evenodd" stroke="none"></path><path d="M0 3.25C0 1.45507 2.91015 0 6.5 0C10.0899 0 13 1.45507 13 3.25C13 5.04493 10.0899 6.5 6.5 6.5C2.91015 6.5 0 5.04493 0 3.25Z" transform="translate(10.833334 2.1666667)" id="Ellipse" fill="url(#gradient_6)" fill-rule="evenodd" stroke="none"></path><path d="M0 2.16667C0 0.97005 2.18261 0 4.875 0C7.56739 0 9.75 0.97005 9.75 2.16667C9.75 3.36328 7.56739 4.33333 4.875 4.33333C2.18261 4.33333 0 3.36328 0 2.16667Z" transform="translate(12.458334 3.25)" id="Ellipse" fill="#FFC800" fill-rule="evenodd" stroke="none"></path><path d="M0 0C0 3.666 0 8.26692 0 8.49767C0 10.0728 2.24088 11.3853 5.21517 11.6838C5.34246 11.3582 5.41667 11.0186 5.41667 10.6643L5.41667 4.16433C5.41667 2.12821 3.19962 0.507542 0 0L0 0Z" transform="translate(10.833334 9.919001)" id="Shape" fill="#000000" fill-opacity="0.05" fill-rule="evenodd" stroke="none"></path><path d="M0 0C0 3.55983 0 7.72796 0 7.94733C0 9.42121 1.96354 10.6638 4.65292 11.0625C4.79267 10.7597 4.875 10.4433 4.875 10.114L4.875 3.614C4.875 1.89692 2.85621 0.481542 0 0L0 0Z" transform="translate(10.833334 10.469334)" id="Shape" fill="#000000" fill-opacity="0.07" fill-rule="evenodd" stroke="none"></path><path d="M13 0L0 0C0 0.38025 0 1.78642 0 2.16667C0 3.96175 2.91038 5.41667 6.5 5.41667C10.0896 5.41667 13 3.96175 13 2.16667C13 1.78642 13 0.38025 13 0L13 0Z" transform="translate(2.166666 18.416668)" id="Shape" fill="url(#gradient_7)" fill-rule="evenodd" stroke="none"></path><path d="M13 0L0 0C0 0.38025 0 1.78642 0 2.16667C0 3.96175 2.91038 5.41667 6.5 5.41667C10.0896 5.41667 13 3.96175 13 2.16667C13 1.78642 13 0.38025 13 0L13 0Z" transform="translate(2.166666 16.25)" id="Shape" fill="url(#gradient_8)" fill-rule="evenodd" stroke="none"></path><path d="M13 0L0 0C0 0.38025 0 1.78642 0 2.16667C0 3.96175 2.91038 5.41667 6.5 5.41667C10.0896 5.41667 13 3.96175 13 2.16667C13 1.78642 13 0.38025 13 0L13 0Z" transform="translate(2.166666 14.083334)" id="Shape" fill="url(#gradient_9)" fill-rule="evenodd" stroke="none"></path><path d="M0 3.25C0 1.45507 2.91015 0 6.5 0C10.0899 0 13 1.45507 13 3.25C13 5.04493 10.0899 6.5 6.5 6.5C2.91015 6.5 0 5.04493 0 3.25Z" transform="translate(2.166666 10.833334)" id="Ellipse" fill="url(#gradient_10)" fill-rule="evenodd" stroke="none"></path><path d="M0 2.16667C0 0.97005 2.18261 0 4.875 0C7.56739 0 9.75 0.97005 9.75 2.16667C9.75 3.36328 7.56739 4.33333 4.875 4.33333C2.18261 4.33333 0 3.36328 0 2.16667Z" transform="translate(3.791666 11.916667)" id="Ellipse" fill="#FFC800" fill-rule="evenodd" stroke="none"></path></g></g><path d="M4.99052 6.15245L4.85005 5.43265C4.82396 5.30082 4.74806 5.18824 4.64159 5.1232C4.53327 5.05758 4.40492 5.04679 4.28791 5.09433C4.05968 5.18678 3.79033 5.2422 3.56816 5.2422C3.29302 5.2422 2.91061 5.17483 2.6526 4.85342C2.6107 4.80092 2.57327 4.73997 2.54059 4.66997L4.18328 4.66997C4.41283 4.66997 4.59942 4.46348 4.59942 4.20945L4.59942 3.86909C4.59942 3.70285 4.5193 3.55673 4.39939 3.47594C4.5193 3.39486 4.59942 3.24903 4.59942 3.0825L4.59942 2.74214C4.59942 2.4881 4.41283 2.28161 4.18328 2.28161L2.57538 2.28161C2.60358 2.22737 2.63468 2.17895 2.66762 2.13724C2.86766 1.8663 3.15598 1.72893 3.52468 1.72893C3.8043 1.72893 4.06416 1.80709 4.23283 1.87242C4.34457 1.91559 4.4687 1.9048 4.57254 1.84267C4.67691 1.78026 4.75307 1.67089 4.78127 1.54285L4.9473 0.795051C4.99817 0.56581 4.88801 0.330445 4.6914 0.247906C4.42258 0.134744 3.98588 0 3.4298 0C2.57354 0 1.79607 0.380609 1.23762 1.07475C0.967745 1.42036 0.767449 1.82576 0.640683 2.2819L0.416141 2.2819C0.186591 2.2819 0 2.4884 0 2.74243L0 3.08279C0 3.24903 0.0801183 3.39515 0.200032 3.47623C0.0801183 3.55702 0 3.70314 0 3.86938L0 4.20974C0 4.46377 0.186591 4.67026 0.416141 4.67026L0.609321 4.67026C0.70367 5.09812 0.868124 5.47698 1.09715 5.79576C1.62055 6.56106 2.46469 7 3.41293 7C3.87177 7 4.36117 6.88159 4.75518 6.6751C4.93492 6.58118 5.0319 6.36623 4.99052 6.15245L4.99052 6.15245Z" transform="translate(5.799999 16.3)" id="Shape" fill="#000000" fill-opacity="0.05" fill-rule="evenodd" stroke="none"></path><path d="M4.73014 6.03696L4.58941 5.31774C4.57175 5.22703 4.51957 5.14974 4.4463 5.10512C4.37172 5.05962 4.28238 5.05233 4.20147 5.08529C3.95927 5.18358 3.67332 5.2422 3.43639 5.2422C3.13437 5.2422 2.71295 5.16608 2.422 4.80443C2.33371 4.69418 2.2644 4.55389 2.21195 4.37861L4.05151 4.37861C4.20832 4.37861 4.33588 4.23745 4.33588 4.06391L4.33588 3.72355C4.33588 3.55002 4.20832 3.40886 4.05151 3.40886L2.04934 3.40886L2.04934 3.40186C2.04934 3.35344 2.04934 3.3024 2.0504 3.25166L4.05151 3.25166C4.20832 3.25166 4.33588 3.1105 4.33588 2.93696L4.33588 2.5966C4.33588 2.42307 4.20832 2.28191 4.05151 2.28191L2.23646 2.28191C2.28943 2.1282 2.3569 1.99638 2.43386 1.89955C2.65972 1.59302 2.98256 1.43757 3.3929 1.43757C3.69098 1.43757 3.96638 1.5201 4.1448 1.58923C4.22202 1.61927 4.30662 1.61168 4.37804 1.56881C4.44973 1.52594 4.50217 1.45069 4.52168 1.36232L4.68771 0.614516C4.72276 0.456731 4.64765 0.294863 4.51298 0.238282C4.1477 0.0845798 3.71654 0 3.29829 0C2.48024 0 1.73757 0.36311 1.20599 1.02429C0.927686 1.3804 0.727126 1.80301 0.608003 2.28191L0.284631 2.28191C0.12782 2.28191 0.000263402 2.42307 0.000263402 2.5966L0.000263402 2.93696C0.000263402 3.1105 0.12782 3.25166 0.284631 3.25166L0.478601 3.25166C0.476493 3.29861 0.474385 3.34557 0.474385 3.39223L0.474385 3.40886L0.284367 3.40886C0.127557 3.40886 0 3.55002 0 3.72355L0 4.06391C0 4.23745 0.127557 4.37861 0.284367 4.37861L0.58323 4.37861C0.668092 4.83184 0.832282 5.22995 1.07053 5.56214C1.5689 6.2907 2.37456 6.70864 3.28116 6.70864C3.72102 6.70864 4.18987 6.59518 4.56701 6.39773C4.6914 6.3324 4.75834 6.18424 4.73014 6.03696L4.73014 6.03696Z" transform="translate(5.7634697 16.291328)" id="Shape-2" fill="#000000" fill-opacity="0.07" fill-rule="evenodd" stroke="none"></path><path d="M4.46923 5.92146C4.48504 6.00283 4.44709 6.08391 4.3791 6.1195C4.07918 6.2764 3.63431 6.4164 3.14912 6.4164C2.30366 6.4164 1.52699 6.03433 1.04365 5.32794C0.810934 5.00333 0.638311 4.59268 0.560564 4.08666L0.152594 4.08666C0.0682586 4.08666 0 4.01112 0 3.91779L0 3.57743C0 3.4841 0.0682586 3.40857 0.152594 3.40857L0.474385 3.40857C0.474385 3.36073 0.474385 3.30357 0.474385 3.24641C0.474385 3.15074 0.483082 3.05537 0.483082 2.96L0.152594 2.96C0.0682586 2.96 0 2.88446 0 2.79113L0 2.45077C0 2.35744 0.0682586 2.2819 0.152594 2.2819L0.578222 2.2819C0.690229 1.76626 0.897378 1.32732 1.17358 0.973834C1.66509 0.362818 2.35532 0 3.16652 0C3.62535 0 4.03174 0.101496 4.33429 0.228949C4.40809 0.259864 4.44683 0.34911 4.42785 0.433982L4.26182 1.18178C4.23942 1.2827 4.14507 1.33986 4.05652 1.30574C3.84067 1.22203 3.55894 1.14591 3.26113 1.14591C2.8471 1.14591 2.46759 1.29874 2.19983 1.66156C2.07886 1.81438 1.98425 2.034 1.92363 2.2822L3.91947 2.2822C4.00381 2.2822 4.07206 2.35773 4.07206 2.45106L4.07206 2.79142C4.07206 2.88475 4.00381 2.96029 3.91947 2.96029L1.79423 2.96029C1.78553 3.05596 1.78553 3.16095 1.78553 3.25632C1.78553 3.31378 1.78553 3.35169 1.78553 3.40915L3.91947 3.40915C4.00381 3.40915 4.07206 3.48469 4.07206 3.57802L4.07206 3.91838C4.07206 4.01171 4.00381 4.08725 3.91947 4.08725L1.9065 4.08725C1.96685 4.37365 2.06173 4.59327 2.19139 4.75543C2.46759 5.09929 2.87293 5.24249 3.30409 5.24249C3.60242 5.24249 3.9055 5.1617 4.1145 5.07683C4.20674 5.0395 4.30768 5.09695 4.32823 5.20312L4.46923 5.92146L4.46923 5.92146Z" transform="translate(6.000046 16.583645)" id="Shape-3" fill="#57FFAB" fill-rule="evenodd" stroke="none"></path></svg>