<svg width="50" height="61" viewBox="0 0 50 61" fill="#18A0FB"><path d="M49.9708 57.8871L46.2948 16.9492C46.1945 15.8312 45.2575 14.9749 44.1352 14.9749H36.5545V11.5559C36.5545 5.18399 31.3708 0 24.9991 0C18.6278 0 13.4447 5.18399 13.4447 11.5559V14.9749H5.85876C4.73645 14.9749 3.79945 15.8312 3.69913 16.9492L0.00867001 58.0482C-0.0456822 58.6547 0.157271 59.2558 0.568093 59.7051C0.978915 60.1543 1.55973 60.4102 2.1683 60.4102H47.8259C47.8276 60.4102 47.83 60.4102 47.8317 60.4102C49.0295 60.4102 50 59.4394 50 58.2419C49.9997 58.1213 49.9899 58.0025 49.9708 57.8871ZM17.7813 11.5559C17.7813 7.5752 21.0193 4.33661 24.9994 4.33661C28.9799 4.33661 32.2181 7.5752 32.2181 11.5559V14.9749H17.7813V11.5559ZM4.54014 56.0739L7.84117 19.3115H13.4447V23.189C13.4447 24.3865 14.4152 25.3573 15.613 25.3573C16.8107 25.3573 17.7813 24.3865 17.7813 23.189V19.3115H32.2181V23.189C32.2181 24.3865 33.1887 25.3573 34.3865 25.3573C35.5842 25.3573 36.5548 24.3865 36.5548 23.189V19.3115H42.153L45.4541 56.0739H4.54014Z"></path></svg>